<svg width="1097" height="323" viewBox="0 0 1097 323" fill="none" xmlns="http://www.w3.org/2000/svg">
<g filter="url(#filter0_d_1241_96)">
<path d="M3.99561 100.925C3.99561 53.7846 3.99561 30.2144 18.6403 15.5697C33.2849 0.925049 56.8552 0.925049 103.996 0.925049H1040.88C1042.44 0.925049 1043.22 0.925049 1043.88 0.94244C1070.46 1.64369 1091.84 23.0259 1092.54 49.6064C1092.56 50.2656 1092.56 51.0451 1092.56 52.6042C1092.56 60.3995 1092.56 64.2971 1092.47 67.5932C1088.97 200.496 982.055 307.407 849.153 310.913C845.857 311 841.959 311 834.164 311H103.996C56.8552 311 33.2849 311 18.6403 296.355C3.99561 281.711 3.99561 258.14 3.99561 211V100.925Z" fill="#507E4D"/>
<path d="M4.49561 100.925C4.49561 77.3407 4.49667 59.7027 6.32173 46.1281C8.14486 32.5678 11.7799 23.1372 18.9938 15.9233C26.2078 8.70932 35.6384 5.0743 49.1986 3.25117C62.7733 1.42611 80.4112 1.42505 103.996 1.42505H1040.88C1042.44 1.42505 1043.21 1.42509 1043.86 1.44227C1070.18 2.1365 1091.35 23.3049 1092.04 49.6196C1092.06 50.2705 1092.06 51.042 1092.06 52.6042C1092.06 60.4027 1092.06 64.2922 1091.97 67.58C1088.47 200.217 981.776 306.914 849.139 310.413C845.852 310.5 841.962 310.5 834.164 310.5H103.996C80.4113 310.5 62.7733 310.499 49.1987 308.674C35.6384 306.851 26.2078 303.216 18.9938 296.002C11.7799 288.788 8.14486 279.357 6.32173 265.797C4.49667 252.222 4.49561 234.584 4.49561 211V100.925Z" stroke="#497246"/>
</g>
<defs>
<filter id="filter0_d_1241_96" x="-0.00439453" y="0.925049" width="1096.56" height="322.075" filterUnits="userSpaceOnUse" color-interpolation-filters="sRGB">
<feFlood flood-opacity="0" result="BackgroundImageFix"/>
<feColorMatrix in="SourceAlpha" type="matrix" values="0 0 0 0 0 0 0 0 0 0 0 0 0 0 0 0 0 0 127 0" result="hardAlpha"/>
<feOffset dy="8"/>
<feGaussianBlur stdDeviation="2"/>
<feComposite in2="hardAlpha" operator="out"/>
<feColorMatrix type="matrix" values="0 0 0 0 0 0 0 0 0 0 0 0 0 0 0 0 0 0 0.25 0"/>
<feBlend mode="normal" in2="BackgroundImageFix" result="effect1_dropShadow_1241_96"/>
<feBlend mode="normal" in="SourceGraphic" in2="effect1_dropShadow_1241_96" result="shape"/>
</filter>
</defs>
</svg>
