<svg width="1097" height="323" viewBox="0 0 1097 323" fill="none" xmlns="http://www.w3.org/2000/svg">
<g filter="url(#filter0_d_1241_102)">
<path d="M4 258.87C4 251.075 4 247.177 4.08696 243.881C7.5932 110.978 114.504 4.06732 247.407 0.561078C250.703 0.474121 254.6 0.474121 262.396 0.474121H992.564C1039.7 0.474121 1063.27 0.474121 1077.92 15.1188C1092.56 29.7634 1092.56 53.3337 1092.56 100.474V210.549C1092.56 257.689 1092.56 281.26 1077.92 295.904C1063.27 310.549 1039.7 310.549 992.564 310.549H55.6793C54.1201 310.549 53.3406 310.549 52.6814 310.532C26.1009 309.83 4.71864 288.448 4.01739 261.868C4 261.208 4 260.429 4 258.87Z" fill="#507E4D"/>
<path d="M4.5 258.87C4.5 251.071 4.50004 247.182 4.58678 243.894C8.08601 111.257 114.783 4.56013 247.42 1.0609C250.708 0.974165 254.597 0.974121 262.396 0.974121H992.564C1016.15 0.974121 1033.79 0.975183 1047.36 2.80025C1060.92 4.62337 1070.35 8.25839 1077.57 15.4723C1084.78 22.6863 1088.41 32.1169 1090.24 45.6772C1092.06 59.2518 1092.06 76.8898 1092.06 100.474V210.549C1092.06 234.133 1092.06 251.771 1090.24 265.346C1088.41 278.906 1084.78 288.337 1077.57 295.551C1070.35 302.765 1060.92 306.4 1047.36 308.223C1033.79 310.048 1016.15 310.049 992.564 310.049H55.6793C54.1169 310.049 53.3455 310.049 52.6945 310.032C26.3799 309.338 5.21145 288.169 4.51722 261.854C4.50004 261.203 4.5 260.432 4.5 258.87Z" stroke="#497246"/>
</g>
<defs>
<filter id="filter0_d_1241_102" x="0" y="0.474121" width="1096.56" height="322.075" filterUnits="userSpaceOnUse" color-interpolation-filters="sRGB">
<feFlood flood-opacity="0" result="BackgroundImageFix"/>
<feColorMatrix in="SourceAlpha" type="matrix" values="0 0 0 0 0 0 0 0 0 0 0 0 0 0 0 0 0 0 127 0" result="hardAlpha"/>
<feOffset dy="8"/>
<feGaussianBlur stdDeviation="2"/>
<feComposite in2="hardAlpha" operator="out"/>
<feColorMatrix type="matrix" values="0 0 0 0 0 0 0 0 0 0 0 0 0 0 0 0 0 0 0.25 0"/>
<feBlend mode="normal" in2="BackgroundImageFix" result="effect1_dropShadow_1241_102"/>
<feBlend mode="normal" in="SourceGraphic" in2="effect1_dropShadow_1241_102" result="shape"/>
</filter>
</defs>
</svg>
